<svg width="2876" height="2876" viewBox="0 0 2876 2876" fill="none" xmlns="http://www.w3.org/2000/svg">
<path d="M953.785 518.595C1018.63 491.806 1087.02 548.475 1072.75 617.17L757.863 2133.09C749.291 2174.36 771.741 2215.79 810.994 2231.15L1269.6 2410.54C1345.32 2440.16 1343.13 2548.06 1266.27 2574.59L910.026 2697.53C865.046 2713.05 815.911 2689.74 799.473 2645.09L169.402 933.528C153.182 889.466 174.666 840.46 218.062 822.532L953.785 518.595ZM1267.23 241.901C1277.28 195.554 1322.46 165.677 1369.04 174.563L2640.23 417.067C2690.08 426.577 2721.38 476.399 2708.32 525.44L2177.98 2516.33C2164.73 2566.1 2111.55 2593.68 2063.23 2575.84L928.753 2157C887.884 2141.91 864.363 2099.03 873.599 2056.45L1267.23 241.901ZM1302.38 2000.48L1712.11 2152.16L1749.54 1940.89L1339.81 1789.21L1302.38 2000.48ZM1377.24 1577.94L1786.98 1729.62L1880.11 1330.93L2078.48 1382.02L2241.26 719.963L1564.4 521.592L1377.24 1577.94Z" fill="white"/>
</svg>
